<svg width="15" height="16" viewBox="0 0 15 16" fill="none" xmlns="http://www.w3.org/2000/svg">
<g id="cart-fill-frame">
<path id="cart-fill" d="M0 0.980164C0 0.704021 0.223858 0.480164 0.5 0.480164H2C2.22943 0.480164 2.42943 0.636312 2.48507 0.858896L2.89039 2.48016H14.5C14.6487 2.48016 14.7898 2.54639 14.8848 2.66085C14.9797 2.7753 15.0188 2.92611 14.9914 3.07231L13.4914 11.0723C13.4471 11.3088 13.2406 11.4802 13 11.4802H12H5H4C3.75939 11.4802 3.55291 11.3088 3.50856 11.0723L2.01131 3.08696L1.60961 1.48016H0.5C0.223858 1.48016 0 1.25631 0 0.980164ZM5 11.4802C3.89543 11.4802 3 12.3756 3 13.4802C3 14.5847 3.89543 15.4802 5 15.4802C6.10457 15.4802 7 14.5847 7 13.4802C7 12.3756 6.10457 11.4802 5 11.4802ZM12 11.4802C10.8954 11.4802 10 12.3756 10 13.4802C10 14.5847 10.8954 15.4802 12 15.4802C13.1046 15.4802 14 14.5847 14 13.4802C14 12.3756 13.1046 11.4802 12 11.4802ZM5 12.4802C5.55228 12.4802 6 12.9279 6 13.4802C6 14.0324 5.55228 14.4802 5 14.4802C4.44772 14.4802 4 14.0324 4 13.4802C4 12.9279 4.44772 12.4802 5 12.4802ZM12 12.4802C12.5523 12.4802 13 12.9279 13 13.4802C13 14.0324 12.5523 14.4802 12 14.4802C11.4477 14.4802 11 14.0324 11 13.4802C11 12.9279 11.4477 12.4802 12 12.4802Z" fill="#FFFFF0"/>
</g>
</svg>
