<svg width="200" height="200" viewBox="0 0 200 200" fill="none" xmlns="http://www.w3.org/2000/svg">
<path d="M76.0048 152.32C75.7107 152.316 75.4195 152.26 75.1448 152.155C68.6239 152.146 62.1033 152.052 55.5848 151.875C50.8698 151.76 46.4948 151.655 41.4298 151.655C33.478 151.647 25.854 148.485 20.2307 142.863C14.6074 137.241 11.4441 129.617 11.4348 121.665C11.4348 111.645 16.2848 102.505 24.4898 96.9102C23.8218 93.6373 23.4834 90.3056 23.4798 86.9652C23.4798 59.7902 45.5898 37.6752 72.7748 37.6752C81.6771 37.684 90.4115 40.0982 98.0546 44.6626C105.698 49.2269 111.965 55.7719 116.195 63.6052C118.978 60.7524 122.306 58.4879 125.981 56.9461C129.657 55.4044 133.604 54.6168 137.59 54.6302C142.146 54.6341 146.642 55.6749 150.737 57.674C154.832 59.6731 158.418 62.5779 161.223 66.1683C164.029 69.7587 165.98 73.9406 166.93 78.3972C167.88 82.8537 167.803 87.4679 166.705 91.8902C172.997 93.6641 178.538 97.4447 182.484 102.657C186.43 107.869 188.565 114.228 188.565 120.765C188.565 137.305 175.11 150.765 158.57 150.765C150.86 150.765 133.355 151.165 116.43 151.555C99.3448 151.955 83.2098 152.32 76.0048 152.32ZM72.7748 42.3302C48.1598 42.3302 28.1348 62.3502 28.1348 86.9652C28.1348 90.5002 28.5548 94.0252 29.3798 97.4402C29.4954 97.9206 29.455 98.4253 29.2644 98.8811C29.0738 99.3369 28.7429 99.7201 28.3198 99.9752C24.573 102.217 21.4746 105.397 19.3293 109.2C17.184 113.003 16.0659 117.299 16.0848 121.665C16.0928 128.383 18.7652 134.823 23.5158 139.573C28.2664 144.322 34.7071 146.994 41.4248 147C46.5298 147 50.9398 147.105 55.6948 147.22C61.2198 147.35 67.2148 147.495 75.3448 147.495C75.639 147.499 75.9301 147.555 76.2048 147.66C83.4698 147.65 100.165 147.27 116.315 146.9C133.27 146.51 150.8 146.11 158.565 146.11C165.284 146.102 171.725 143.429 176.476 138.678C181.227 133.926 183.898 127.484 183.905 120.765C183.906 114.872 181.853 109.163 178.098 104.621C174.344 100.079 169.123 96.9877 163.335 95.8802C163.008 95.8181 162.698 95.6863 162.427 95.4938C162.155 95.3014 161.928 95.0528 161.761 94.7649C161.594 94.477 161.491 94.1566 161.459 93.8254C161.427 93.4941 161.466 93.1599 161.575 92.8452C162.877 89.0288 163.25 84.957 162.664 80.9675C162.078 76.9779 160.549 73.1856 158.204 69.9051C155.859 66.6246 152.766 63.9505 149.181 62.1044C145.596 60.2584 141.622 59.2936 137.59 59.2902C133.704 59.2806 129.869 60.1697 126.384 61.8879C122.899 63.6062 119.858 66.1071 117.5 69.1952C117.256 69.5167 116.932 69.7689 116.561 69.9268C116.19 70.0847 115.783 70.1427 115.383 70.0952C114.982 70.0477 114.601 69.8963 114.277 69.656C113.952 69.4157 113.697 69.0948 113.535 68.7252C110.002 60.8694 104.277 54.2002 97.0464 49.5182C89.8163 44.8362 81.3885 42.3403 72.7748 42.3302Z" fill="#545454"/>
<path d="M89.2898 107.569C89.4017 107.568 89.5122 107.592 89.6135 107.64C89.7147 107.688 89.804 107.757 89.8748 107.844L91.4898 109.584C90.2576 111.002 88.7326 112.136 87.0198 112.909C85.2698 113.702 83.1532 114.099 80.6698 114.099C78.5198 114.099 76.5665 113.725 74.8098 112.979C73.1035 112.264 71.5693 111.194 70.3098 109.839C69.0271 108.435 68.0438 106.785 67.4198 104.989C66.7155 102.993 66.3685 100.89 66.3948 98.7737C66.3948 96.5137 66.7515 94.4404 67.4648 92.5537C68.1005 90.754 69.1105 89.1096 70.4283 87.7288C71.7461 86.3481 73.3417 85.2625 75.1098 84.5437C77.0053 83.7827 79.0324 83.4037 81.0748 83.4287C83.2082 83.4287 85.0932 83.7704 86.7298 84.4537C88.3598 85.1337 89.7965 86.0604 91.0398 87.2337L89.6998 89.0987C89.6207 89.2381 89.5092 89.3564 89.3748 89.4437C89.2127 89.538 89.0273 89.5848 88.8398 89.5787C88.5865 89.5787 88.2798 89.442 87.9198 89.1687C86.8366 88.3413 85.6091 87.7225 84.2998 87.3437C83.2446 87.0461 82.1509 86.9079 81.0548 86.9337C79.5082 86.9337 78.0898 87.2037 76.7998 87.7437C75.5357 88.2673 74.4035 89.0648 73.4848 90.0787C72.5582 91.0954 71.8365 92.337 71.3198 93.8037C70.7864 95.4021 70.5261 97.0789 70.5498 98.7637C70.5498 100.63 70.8182 102.297 71.3548 103.764C71.8882 105.23 72.6215 106.469 73.5548 107.479C74.9548 108.994 75.5748 109.264 76.8398 109.794C78.1065 110.324 79.4715 110.589 80.9348 110.589C81.8282 110.589 82.6332 110.535 83.3498 110.429C84.0282 110.334 84.695 110.17 85.3398 109.939C85.9345 109.721 86.5031 109.438 87.0348 109.094C87.5581 108.747 88.0798 108.339 88.5998 107.869C88.782 107.683 89.0295 107.575 89.2898 107.569ZM123.335 98.7787C123.335 101.022 122.978 103.085 122.265 104.969C121.591 106.767 120.566 108.414 119.25 109.814C117.931 111.183 116.338 112.258 114.575 112.969C112.652 113.727 110.601 114.106 108.535 114.084C106.328 114.084 104.318 113.712 102.505 112.969C100.745 112.257 99.1557 111.182 97.8398 109.814C96.5128 108.423 95.4865 106.774 94.8248 104.969C94.0977 102.987 93.7352 100.89 93.7548 98.7787C93.7548 96.532 94.1115 94.4687 94.8248 92.5887C95.5415 90.712 96.5465 89.0937 97.8398 87.7337C99.1543 86.3604 100.744 85.2801 102.505 84.5637C104.419 83.789 106.47 83.4049 108.535 83.4337C110.745 83.4337 112.758 83.8104 114.575 84.5637C116.391 85.317 117.95 86.3737 119.25 87.7337C120.55 89.0937 121.555 90.712 122.265 92.5887C122.978 94.4687 123.335 96.532 123.335 98.7787ZM119.165 98.7787C119.165 96.932 118.913 95.2787 118.41 93.8187C117.961 92.4468 117.234 91.1821 116.275 90.1037C115.346 89.0855 114.201 88.2878 112.925 87.7687C111.526 87.2099 110.031 86.9312 108.525 86.9487C106.921 86.9487 105.463 87.222 104.15 87.7687C102.871 88.2871 101.725 89.0849 100.795 90.1037C99.8648 91.1137 99.1481 92.352 98.6448 93.8187C98.1448 95.282 97.8931 96.9354 97.8898 98.7787C97.8898 100.619 98.1415 102.269 98.6448 103.729C99.1448 105.182 99.8615 106.417 100.795 107.434C101.721 108.447 102.84 109.22 104.15 109.754C105.463 110.294 106.921 110.564 108.525 110.564C110.141 110.564 111.608 110.294 112.925 109.754C114.235 109.22 115.351 108.447 116.275 107.434C117.195 106.417 117.906 105.182 118.41 103.729C118.916 102.269 119.168 100.619 119.165 98.7787ZM137.345 125.649C137.578 125.649 137.766 125.719 137.91 125.859C137.978 125.93 138.032 126.013 138.068 126.105C138.104 126.197 138.122 126.295 138.12 126.394V127.714H126.45V126.969C126.457 126.619 126.601 126.285 126.85 126.039L132.45 120.414C132.913 119.94 133.336 119.485 133.72 119.049C134.1 118.615 134.425 118.177 134.695 117.734C134.961 117.294 135.168 116.849 135.315 116.399C135.459 115.929 135.533 115.44 135.535 114.949C135.542 114.489 135.459 114.032 135.29 113.604C135.146 113.24 134.922 112.914 134.635 112.649C134.347 112.384 134.004 112.188 133.63 112.074C132.828 111.817 131.965 111.821 131.165 112.084C130.45 112.325 129.842 112.808 129.445 113.449C129.251 113.774 129.11 114.129 129.03 114.499C128.933 114.782 128.801 114.972 128.635 115.069C128.468 115.165 128.233 115.192 127.93 115.149L126.795 114.949C126.908 114.155 127.131 113.45 127.465 112.834C127.791 112.224 128.206 111.709 128.71 111.289C129.21 110.879 129.78 110.564 130.42 110.344C131.063 110.13 131.76 110.024 132.51 110.024C133.25 110.024 133.94 110.132 134.58 110.349C135.195 110.54 135.762 110.861 136.243 111.291C136.723 111.721 137.106 112.248 137.365 112.839C137.641 113.486 137.777 114.185 137.765 114.889C137.765 115.542 137.668 116.145 137.475 116.699C137.28 117.26 137.015 117.794 136.685 118.289C136.351 118.795 135.966 119.289 135.53 119.769C135.093 120.249 134.631 120.734 134.145 121.224L129.53 125.929C129.856 125.842 130.186 125.772 130.52 125.719C130.853 125.665 131.175 125.639 131.485 125.639H137.345V125.649Z" fill="#545454"/>
</svg>
