<svg width="714" height="754" viewBox="0 0 714 754" fill="none" xmlns="http://www.w3.org/2000/svg">
<g clip-path="url(#clip0_915_2446)">
<path d="M121.727 187.89C59.704 291.705 124.895 391.519 159.742 432.553C214.962 379.62 302.462 396.135 339.309 411.01C413.737 445.478 468.357 439.734 486.364 432.553C625.616 342.689 611.744 232.001 587.402 187.89C530.18 52.8893 413.17 28.0298 361.817 32.4751C196.955 46.0162 129.397 144.463 121.727 187.89Z" fill="#80B2FF" stroke="#545454" stroke-width="10"/>
<path d="M481.827 263.054C446 296.5 391.994 275.72 369.539 270.192C347.149 200.921 385.327 173.054 421.827 152.054C458.327 131.054 503.827 145.554 535.827 140.554C529.827 214.554 498 247.956 481.827 263.054Z" fill="#9ACE96" stroke="#FFFFF0" stroke-width="5"/>
<path d="M161 438C180.833 415.5 245.6 378.1 346 408.5C417.5 446 569.9 462.8 609.5 258" stroke="#545454" stroke-width="10"/>
<path d="M425.516 520.679C281.907 551.801 192.168 476.693 164.5 435C206.903 380.241 295.664 394.525 339.5 407C516.311 495.244 595.193 352.595 608.527 272C617.728 421.306 490.353 499.997 425.516 520.679Z" fill="#E6ECCC" stroke="#545454"/>
<path d="M342 308.5C345.134 323.203 350.364 362.15 346.363 402.31" stroke="#FFFFF0" stroke-width="7"/>
<path d="M178.819 82.3871C57.0075 212.459 105.786 371.667 150.678 429C191.282 395.541 274.088 414.71 301.057 415.582C89.1934 215.665 333.888 107.481 489 79.9467C355.128 -16.2477 227.899 29.9333 178.819 82.3871Z" fill="#488EF8" stroke="#488EF8" stroke-width="10"/>
<path d="M394.97 424.994C267.514 364.83 185.883 409.624 161 434.692C306.091 551.283 463.883 460.751 522 407.5C486.328 437.769 420.688 432.935 394.97 424.994Z" fill="#2E4E3F" stroke="#545454" stroke-width="10"/>
<path d="M203.5 254.103C238.3 288.903 309.667 280.167 332.5 276.5C360.5 209.301 330.5 178.5 311 163C277 135 218 155 167.5 150C167.5 207.2 190.5 239.5 203.5 254.103Z" fill="#9ACE96" stroke="#FFFFF0" stroke-width="5"/>
<path d="M235 195C278 208.5 324.3 219.7 341.5 310.5C358.5 276.5 411 215 483.5 173.5" stroke="#FFFFF0" stroke-width="5"/>
</g>
<rect x="107" y="33" width="501" height="496" rx="248" stroke="#545454" stroke-width="10"/>
<path d="M207.816 590.264V599.96H233.448V590.264H207.816ZM197.064 580.472H244.776V609.656H197.064V580.472ZM230.472 617.912L240.072 613.112C245.16 618.968 250.728 626.936 253.416 632.216L243.432 637.88C240.936 632.504 235.368 624.056 230.472 617.912ZM189.768 564.536H251.4V575.192H189.768V564.536ZM214.44 553.496H226.152V570.008H214.44V553.496ZM215.4 605.816H226.632V631.736C226.632 637.016 225.768 639.992 222.12 641.72C218.472 643.448 213.672 643.448 207.144 643.448C206.76 640.28 205.416 635.768 203.976 632.696C207.912 632.888 212.424 632.888 213.672 632.888C215.016 632.888 215.4 632.504 215.4 631.448V605.816ZM198.888 613.592L209.832 616.856C206.28 624.536 200.424 633.176 195.528 638.552C193.416 636.632 188.904 633.464 186.312 631.928C191.112 627.224 196.008 620.216 198.888 613.592ZM167.496 562.424L173.832 553.88C179.784 556.184 187.368 560.12 191.208 563.384L184.392 572.984C180.936 569.528 173.448 565.112 167.496 562.424ZM161.832 588.44L168.168 579.608C174.024 581.816 181.896 585.56 185.832 588.824L179.112 598.52C175.56 595.256 167.88 590.936 161.832 588.44ZM164.616 635.096C169.416 627.8 176.232 615.704 181.512 604.472L190.44 611.864C185.736 622.04 180.168 633.08 174.792 642.488L164.616 635.096ZM263.304 576.44H289.896V587H263.304V576.44ZM271.752 554.84H282.408V619.16H271.752V554.84ZM261.768 620.6C268.872 618.488 279.528 614.648 289.8 610.904L291.912 621.176C282.888 625.016 273.288 628.856 265.32 632.024L261.768 620.6ZM297.48 566.84H351.144V577.304H297.48V566.84ZM299.208 587.672H315.048V596.984H299.208V587.672ZM292.776 566.84H303.336V598.904C303.336 613.016 301.704 632.312 290.952 644.024C289.32 642.008 285 638.264 282.6 636.92C291.912 626.456 292.776 611.096 292.776 598.808V566.84ZM310.92 587.672H320.424C320.424 587.672 320.424 590.264 320.328 591.416C320.04 613.016 319.656 621.56 317.736 624.344C316.2 626.36 314.664 627.224 312.36 627.608C310.44 627.992 307.368 628.088 304.2 627.992C303.912 625.112 303.048 621.08 301.704 618.584C304.104 618.872 306.024 618.872 307.08 618.872C308.136 618.872 308.808 618.584 309.48 617.72C310.44 616.184 310.728 609.368 310.92 589.304V587.672ZM321.672 553.4H332.52C331.752 592.376 336.84 631.832 342.792 631.832C344.136 631.832 345 627.32 345.288 617.432C347.4 619.928 350.76 622.328 353.352 623.48C351.912 638.456 348.936 642.584 341.352 642.584C325.224 642.584 321.96 596.312 321.672 553.4ZM332.616 557.624L340.488 553.016C344.04 556.376 348.168 561.08 349.896 564.344L341.448 569.336C339.912 566.168 336.072 561.176 332.616 557.624ZM340.488 586.808L350.856 588.728C345 613.592 333.768 632.408 316.68 643.832C315.048 641.816 311.016 637.784 308.712 636.056C325.512 626.264 335.688 609.176 340.488 586.808ZM373.512 576.824H398.856V587H373.512V576.824ZM368.328 558.2H379.272V629.528L368.328 631.448V558.2ZM361.704 627.224C370.92 625.4 385.128 621.944 398.472 618.584L399.816 629.432C387.912 632.888 374.952 636.44 365.064 639.128L361.704 627.224ZM385.416 611.864L394.728 607.352C400.68 615.608 407.112 626.456 409.416 633.848L399.336 639.032C397.224 631.64 391.176 620.312 385.416 611.864ZM373.416 558.2H405.768V605.432H373.416V594.776H395.112V568.856H373.416V558.2ZM436.488 558.008H448.392V616.28C448.392 621.848 447.528 625.496 443.976 627.608C440.52 629.816 436.008 630.104 429.672 630.104C429.384 626.552 427.56 620.792 425.736 617.432C429.48 617.72 433.512 617.624 434.856 617.624C436.104 617.624 436.488 617.24 436.488 615.992V558.008ZM411.048 558.008H442.632V569.624H422.856V643.544H411.048V558.008ZM499.848 563.672H548.904V573.656H499.848V563.672ZM496.584 582.104H551.784V592.28H496.584V582.104ZM496.776 600.44H551.112V610.52H496.776V600.44ZM518.376 553.4H529.704V588.632H518.376V553.4ZM530.568 591.704H541.8V631.448C541.8 637.016 540.744 639.992 537 641.624C533.16 643.352 527.976 643.544 520.776 643.544C520.392 640.376 518.664 635.768 517.128 632.792C521.832 632.984 527.112 632.984 528.552 632.888C530.088 632.888 530.568 632.6 530.568 631.256V591.704ZM500.616 616.952L509.832 611.672C514.344 616.376 519.432 622.712 521.544 627.416L511.656 633.176C509.832 628.664 505.032 621.848 500.616 616.952ZM470.184 559.352H494.952V625.016H470.184V614.744H484.2V569.624H470.184V559.352ZM470.76 586.616H489.384V596.696H470.76V586.616ZM464.808 559.352H475.464V633.56H464.808V559.352Z" fill="#545454"/>
<line x1="43" y1="690" x2="186" y2="690" stroke="#545454" stroke-width="10"/>
<path d="M238.198 705V677H249.678C251.624 677 253.264 677.307 254.598 677.92C255.931 678.533 256.931 679.387 257.598 680.48C258.291 681.547 258.638 682.787 258.638 684.2C258.638 685.613 258.331 686.8 257.718 687.76C257.104 688.72 256.291 689.467 255.278 690C254.291 690.507 253.198 690.8 251.998 690.88L252.638 690.44C253.918 690.493 255.051 690.84 256.038 691.48C257.051 692.093 257.838 692.92 258.398 693.96C258.984 695 259.278 696.133 259.278 697.36C259.278 698.853 258.918 700.173 258.198 701.32C257.478 702.467 256.438 703.373 255.078 704.04C253.718 704.68 252.051 705 250.078 705H238.198ZM243.598 700.6H249.198C250.664 700.6 251.798 700.267 252.598 699.6C253.398 698.933 253.798 697.973 253.798 696.72C253.798 695.467 253.384 694.493 252.558 693.8C251.731 693.08 250.584 692.72 249.118 692.72H243.598V700.6ZM243.598 688.68H248.798C250.211 688.68 251.278 688.36 251.998 687.72C252.744 687.08 253.118 686.173 253.118 685C253.118 683.853 252.744 682.96 251.998 682.32C251.278 681.653 250.198 681.32 248.758 681.32H243.598V688.68ZM273.265 705.48C271.239 705.48 269.439 705.053 267.865 704.2C266.319 703.32 265.105 702.107 264.225 700.56C263.372 698.987 262.945 697.173 262.945 695.12C262.945 693.013 263.372 691.16 264.225 689.56C265.105 687.933 266.319 686.667 267.865 685.76C269.412 684.827 271.212 684.36 273.265 684.36C275.265 684.36 277.012 684.8 278.505 685.68C279.999 686.56 281.159 687.747 281.985 689.24C282.812 690.733 283.225 692.427 283.225 694.32C283.225 694.587 283.225 694.893 283.225 695.24C283.225 695.56 283.199 695.893 283.145 696.24H266.785V692.96H277.785C277.705 691.653 277.239 690.627 276.385 689.88C275.559 689.133 274.519 688.76 273.265 688.76C272.359 688.76 271.519 688.973 270.745 689.4C269.972 689.8 269.359 690.427 268.905 691.28C268.479 692.133 268.265 693.213 268.265 694.52V695.68C268.265 696.773 268.465 697.733 268.865 698.56C269.292 699.36 269.879 699.987 270.625 700.44C271.372 700.867 272.239 701.08 273.225 701.08C274.212 701.08 275.025 700.867 275.665 700.44C276.332 700.013 276.825 699.467 277.145 698.8H282.665C282.292 700.053 281.665 701.187 280.785 702.2C279.905 703.213 278.825 704.013 277.545 704.6C276.265 705.187 274.839 705.48 273.265 705.48ZM309.742 705.48C306.942 705.48 304.529 704.88 302.502 703.68C300.502 702.453 298.955 700.76 297.862 698.6C296.795 696.413 296.262 693.893 296.262 691.04C296.262 688.187 296.795 685.667 297.862 683.48C298.955 681.293 300.502 679.587 302.502 678.36C304.529 677.133 306.942 676.52 309.742 676.52C313.129 676.52 315.902 677.36 318.062 679.04C320.222 680.72 321.569 683.093 322.102 686.16H316.222C315.875 684.667 315.142 683.507 314.022 682.68C312.929 681.827 311.489 681.4 309.702 681.4C308.049 681.4 306.622 681.8 305.422 682.6C304.249 683.373 303.342 684.48 302.702 685.92C302.062 687.333 301.742 689.04 301.742 691.04C301.742 693.013 302.062 694.72 302.702 696.16C303.342 697.6 304.249 698.707 305.422 699.48C306.622 700.253 308.049 700.64 309.702 700.64C311.489 700.64 312.929 700.253 314.022 699.48C315.115 698.68 315.835 697.573 316.182 696.16H322.102C321.569 699.067 320.222 701.347 318.062 703C315.902 704.653 313.129 705.48 309.742 705.48ZM336.113 705.48C334.193 705.48 332.46 705.04 330.913 704.16C329.393 703.253 328.18 702.013 327.273 700.44C326.393 698.84 325.953 697.013 325.953 694.96C325.953 692.853 326.393 691.013 327.273 689.44C328.18 687.84 329.406 686.6 330.953 685.72C332.5 684.813 334.233 684.36 336.153 684.36C338.1 684.36 339.833 684.813 341.353 685.72C342.9 686.6 344.113 687.84 344.993 689.44C345.9 691.013 346.353 692.84 346.353 694.92C346.353 697 345.9 698.84 344.993 700.44C344.113 702.013 342.9 703.253 341.353 704.16C339.806 705.04 338.06 705.48 336.113 705.48ZM336.113 700.8C337.02 700.8 337.82 700.587 338.513 700.16C339.233 699.733 339.793 699.08 340.193 698.2C340.62 697.32 340.833 696.227 340.833 694.92C340.833 693.613 340.62 692.533 340.193 691.68C339.793 690.8 339.233 690.147 338.513 689.72C337.82 689.267 337.033 689.04 336.153 689.04C335.3 689.04 334.513 689.267 333.793 689.72C333.073 690.147 332.5 690.8 332.073 691.68C331.673 692.533 331.473 693.613 331.473 694.92C331.473 696.227 331.673 697.32 332.073 698.2C332.5 699.08 333.06 699.733 333.753 700.16C334.473 700.587 335.26 700.8 336.113 700.8ZM360.527 705.48C358.607 705.48 356.874 705.04 355.327 704.16C353.807 703.253 352.594 702.013 351.687 700.44C350.807 698.84 350.367 697.013 350.367 694.96C350.367 692.853 350.807 691.013 351.687 689.44C352.594 687.84 353.821 686.6 355.367 685.72C356.914 684.813 358.647 684.36 360.567 684.36C362.514 684.36 364.247 684.813 365.767 685.72C367.314 686.6 368.527 687.84 369.407 689.44C370.314 691.013 370.767 692.84 370.767 694.92C370.767 697 370.314 698.84 369.407 700.44C368.527 702.013 367.314 703.253 365.767 704.16C364.221 705.04 362.474 705.48 360.527 705.48ZM360.527 700.8C361.434 700.8 362.234 700.587 362.927 700.16C363.647 699.733 364.207 699.08 364.607 698.2C365.034 697.32 365.247 696.227 365.247 694.92C365.247 693.613 365.034 692.533 364.607 691.68C364.207 690.8 363.647 690.147 362.927 689.72C362.234 689.267 361.447 689.04 360.567 689.04C359.714 689.04 358.927 689.267 358.207 689.72C357.487 690.147 356.914 690.8 356.487 691.68C356.087 692.533 355.887 693.613 355.887 694.92C355.887 696.227 356.087 697.32 356.487 698.2C356.914 699.08 357.474 699.733 358.167 700.16C358.887 700.587 359.674 700.8 360.527 700.8ZM375.421 705V676.2H380.821V705H375.421ZM395.619 705V677H401.019L413.899 696.32V677H419.299V705H413.899L401.019 685.72V705H395.619ZM434.16 705.48C432.24 705.48 430.507 705.04 428.96 704.16C427.44 703.253 426.227 702.013 425.32 700.44C424.44 698.84 424 697.013 424 694.96C424 692.853 424.44 691.013 425.32 689.44C426.227 687.84 427.453 686.6 429 685.72C430.547 684.813 432.28 684.36 434.2 684.36C436.147 684.36 437.88 684.813 439.4 685.72C440.947 686.6 442.16 687.84 443.04 689.44C443.947 691.013 444.4 692.84 444.4 694.92C444.4 697 443.947 698.84 443.04 700.44C442.16 702.013 440.947 703.253 439.4 704.16C437.853 705.04 436.107 705.48 434.16 705.48ZM434.16 700.8C435.067 700.8 435.867 700.587 436.56 700.16C437.28 699.733 437.84 699.08 438.24 698.2C438.667 697.32 438.88 696.227 438.88 694.92C438.88 693.613 438.667 692.533 438.24 691.68C437.84 690.8 437.28 690.147 436.56 689.72C435.867 689.267 435.08 689.04 434.2 689.04C433.347 689.04 432.56 689.267 431.84 689.72C431.12 690.147 430.547 690.8 430.12 691.68C429.72 692.533 429.52 693.613 429.52 694.92C429.52 696.227 429.72 697.32 430.12 698.2C430.547 699.08 431.107 699.733 431.8 700.16C432.52 700.587 433.307 700.8 434.16 700.8ZM452.35 705L446.43 684.84H451.75L455.67 701.2L454.67 701.16L459.15 684.84H465.15L469.63 701.16L468.59 701.2L472.55 684.84H477.87L471.95 705H466.35L461.59 688.2H462.71L457.95 705H452.35Z" fill="#545454"/>
<line x1="528" y1="690" x2="671" y2="690" stroke="#545454" stroke-width="10"/>
<defs>
<clipPath id="clip0_915_2446">
<rect x="102" y="28" width="511" height="506" rx="253" fill="white"/>
</clipPath>
</defs>
</svg>
