<svg width="714" height="856" viewBox="0 0 714 856" fill="none" xmlns="http://www.w3.org/2000/svg">
<g clip-path="url(#clip0_915_2447)">
<path d="M120.727 187.89C58.704 291.705 123.895 391.519 158.742 432.553C213.962 379.62 301.462 396.135 338.309 411.01C412.737 445.478 467.357 439.734 485.364 432.553C624.616 342.689 610.744 232.001 586.402 187.89C529.18 52.8893 412.17 28.0298 360.817 32.4751C195.955 46.0162 128.397 144.463 120.727 187.89Z" fill="#80B2FF" stroke="#545454" stroke-width="10"/>
<path d="M480.827 263.054C445 296.5 390.994 275.72 368.539 270.192C346.149 200.921 384.327 173.054 420.827 152.054C457.327 131.054 502.827 145.554 534.827 140.554C528.827 214.554 497 247.956 480.827 263.054Z" fill="#9ACE96" stroke="#FFFFF0" stroke-width="5"/>
<path d="M160 438C179.833 415.5 244.6 378.1 345 408.5C416.5 446 568.9 462.8 608.5 258" stroke="#545454" stroke-width="10"/>
<path d="M424.516 520.679C280.907 551.801 191.168 476.693 163.5 435C205.903 380.241 294.664 394.525 338.5 407C515.311 495.244 594.193 352.595 607.527 272C616.728 421.306 489.353 499.997 424.516 520.679Z" fill="#E6ECCC" stroke="#545454"/>
<path d="M341 308.5C344.134 323.203 349.364 362.15 345.363 402.31" stroke="#FFFFF0" stroke-width="7"/>
<path d="M177.819 82.3871C56.0075 212.459 104.786 371.667 149.678 429C190.282 395.541 273.088 414.71 300.057 415.582C88.1934 215.665 332.888 107.481 488 79.9467C354.128 -16.2477 226.899 29.9333 177.819 82.3871Z" fill="#488EF8" stroke="#488EF8" stroke-width="10"/>
<path d="M393.97 424.994C266.514 364.83 184.883 409.624 160 434.692C305.091 551.283 462.883 460.751 521 407.5C485.328 437.769 419.688 432.935 393.97 424.994Z" fill="#2E4E3F" stroke="#545454" stroke-width="10"/>
<path d="M202.5 254.103C237.3 288.903 308.667 280.167 331.5 276.5C359.5 209.301 329.5 178.5 310 163C276 135 217 155 166.5 150C166.5 207.2 189.5 239.5 202.5 254.103Z" fill="#9ACE96" stroke="#FFFFF0" stroke-width="5"/>
<path d="M234 195C277 208.5 323.3 219.7 340.5 310.5C357.5 276.5 410 215 482.5 173.5" stroke="#FFFFF0" stroke-width="5"/>
</g>
<rect x="106" y="33" width="501" height="496" rx="248" stroke="#545454" stroke-width="10"/>
<path d="M207.816 622.264V631.96H233.448V622.264H207.816ZM197.064 612.472H244.776V641.656H197.064V612.472ZM230.472 649.912L240.072 645.112C245.16 650.968 250.728 658.936 253.416 664.216L243.432 669.88C240.936 664.504 235.368 656.056 230.472 649.912ZM189.768 596.536H251.4V607.192H189.768V596.536ZM214.44 585.496H226.152V602.008H214.44V585.496ZM215.4 637.816H226.632V663.736C226.632 669.016 225.768 671.992 222.12 673.72C218.472 675.448 213.672 675.448 207.144 675.448C206.76 672.28 205.416 667.768 203.976 664.696C207.912 664.888 212.424 664.888 213.672 664.888C215.016 664.888 215.4 664.504 215.4 663.448V637.816ZM198.888 645.592L209.832 648.856C206.28 656.536 200.424 665.176 195.528 670.552C193.416 668.632 188.904 665.464 186.312 663.928C191.112 659.224 196.008 652.216 198.888 645.592ZM167.496 594.424L173.832 585.88C179.784 588.184 187.368 592.12 191.208 595.384L184.392 604.984C180.936 601.528 173.448 597.112 167.496 594.424ZM161.832 620.44L168.168 611.608C174.024 613.816 181.896 617.56 185.832 620.824L179.112 630.52C175.56 627.256 167.88 622.936 161.832 620.44ZM164.616 667.096C169.416 659.8 176.232 647.704 181.512 636.472L190.44 643.864C185.736 654.04 180.168 665.08 174.792 674.488L164.616 667.096ZM263.304 608.44H289.896V619H263.304V608.44ZM271.752 586.84H282.408V651.16H271.752V586.84ZM261.768 652.6C268.872 650.488 279.528 646.648 289.8 642.904L291.912 653.176C282.888 657.016 273.288 660.856 265.32 664.024L261.768 652.6ZM297.48 598.84H351.144V609.304H297.48V598.84ZM299.208 619.672H315.048V628.984H299.208V619.672ZM292.776 598.84H303.336V630.904C303.336 645.016 301.704 664.312 290.952 676.024C289.32 674.008 285 670.264 282.6 668.92C291.912 658.456 292.776 643.096 292.776 630.808V598.84ZM310.92 619.672H320.424C320.424 619.672 320.424 622.264 320.328 623.416C320.04 645.016 319.656 653.56 317.736 656.344C316.2 658.36 314.664 659.224 312.36 659.608C310.44 659.992 307.368 660.088 304.2 659.992C303.912 657.112 303.048 653.08 301.704 650.584C304.104 650.872 306.024 650.872 307.08 650.872C308.136 650.872 308.808 650.584 309.48 649.72C310.44 648.184 310.728 641.368 310.92 621.304V619.672ZM321.672 585.4H332.52C331.752 624.376 336.84 663.832 342.792 663.832C344.136 663.832 345 659.32 345.288 649.432C347.4 651.928 350.76 654.328 353.352 655.48C351.912 670.456 348.936 674.584 341.352 674.584C325.224 674.584 321.96 628.312 321.672 585.4ZM332.616 589.624L340.488 585.016C344.04 588.376 348.168 593.08 349.896 596.344L341.448 601.336C339.912 598.168 336.072 593.176 332.616 589.624ZM340.488 618.808L350.856 620.728C345 645.592 333.768 664.408 316.68 675.832C315.048 673.816 311.016 669.784 308.712 668.056C325.512 658.264 335.688 641.176 340.488 618.808ZM373.512 608.824H398.856V619H373.512V608.824ZM368.328 590.2H379.272V661.528L368.328 663.448V590.2ZM361.704 659.224C370.92 657.4 385.128 653.944 398.472 650.584L399.816 661.432C387.912 664.888 374.952 668.44 365.064 671.128L361.704 659.224ZM385.416 643.864L394.728 639.352C400.68 647.608 407.112 658.456 409.416 665.848L399.336 671.032C397.224 663.64 391.176 652.312 385.416 643.864ZM373.416 590.2H405.768V637.432H373.416V626.776H395.112V600.856H373.416V590.2ZM436.488 590.008H448.392V648.28C448.392 653.848 447.528 657.496 443.976 659.608C440.52 661.816 436.008 662.104 429.672 662.104C429.384 658.552 427.56 652.792 425.736 649.432C429.48 649.72 433.512 649.624 434.856 649.624C436.104 649.624 436.488 649.24 436.488 647.992V590.008ZM411.048 590.008H442.632V601.624H422.856V675.544H411.048V590.008ZM499.848 595.672H548.904V605.656H499.848V595.672ZM496.584 614.104H551.784V624.28H496.584V614.104ZM496.776 632.44H551.112V642.52H496.776V632.44ZM518.376 585.4H529.704V620.632H518.376V585.4ZM530.568 623.704H541.8V663.448C541.8 669.016 540.744 671.992 537 673.624C533.16 675.352 527.976 675.544 520.776 675.544C520.392 672.376 518.664 667.768 517.128 664.792C521.832 664.984 527.112 664.984 528.552 664.888C530.088 664.888 530.568 664.6 530.568 663.256V623.704ZM500.616 648.952L509.832 643.672C514.344 648.376 519.432 654.712 521.544 659.416L511.656 665.176C509.832 660.664 505.032 653.848 500.616 648.952ZM470.184 591.352H494.952V657.016H470.184V646.744H484.2V601.624H470.184V591.352ZM470.76 618.616H489.384V628.696H470.76V618.616ZM464.808 591.352H475.464V665.56H464.808V591.352Z" fill="#545454"/>
<line x1="43" y1="722" x2="186" y2="722" stroke="#545454" stroke-width="10"/>
<path d="M238.198 737V709H249.678C251.624 709 253.264 709.307 254.598 709.92C255.931 710.533 256.931 711.387 257.598 712.48C258.291 713.547 258.638 714.787 258.638 716.2C258.638 717.613 258.331 718.8 257.718 719.76C257.104 720.72 256.291 721.467 255.278 722C254.291 722.507 253.198 722.8 251.998 722.88L252.638 722.44C253.918 722.493 255.051 722.84 256.038 723.48C257.051 724.093 257.838 724.92 258.398 725.96C258.984 727 259.278 728.133 259.278 729.36C259.278 730.853 258.918 732.173 258.198 733.32C257.478 734.467 256.438 735.373 255.078 736.04C253.718 736.68 252.051 737 250.078 737H238.198ZM243.598 732.6H249.198C250.664 732.6 251.798 732.267 252.598 731.6C253.398 730.933 253.798 729.973 253.798 728.72C253.798 727.467 253.384 726.493 252.558 725.8C251.731 725.08 250.584 724.72 249.118 724.72H243.598V732.6ZM243.598 720.68H248.798C250.211 720.68 251.278 720.36 251.998 719.72C252.744 719.08 253.118 718.173 253.118 717C253.118 715.853 252.744 714.96 251.998 714.32C251.278 713.653 250.198 713.32 248.758 713.32H243.598V720.68ZM273.265 737.48C271.239 737.48 269.439 737.053 267.865 736.2C266.319 735.32 265.105 734.107 264.225 732.56C263.372 730.987 262.945 729.173 262.945 727.12C262.945 725.013 263.372 723.16 264.225 721.56C265.105 719.933 266.319 718.667 267.865 717.76C269.412 716.827 271.212 716.36 273.265 716.36C275.265 716.36 277.012 716.8 278.505 717.68C279.999 718.56 281.159 719.747 281.985 721.24C282.812 722.733 283.225 724.427 283.225 726.32C283.225 726.587 283.225 726.893 283.225 727.24C283.225 727.56 283.199 727.893 283.145 728.24H266.785V724.96H277.785C277.705 723.653 277.239 722.627 276.385 721.88C275.559 721.133 274.519 720.76 273.265 720.76C272.359 720.76 271.519 720.973 270.745 721.4C269.972 721.8 269.359 722.427 268.905 723.28C268.479 724.133 268.265 725.213 268.265 726.52V727.68C268.265 728.773 268.465 729.733 268.865 730.56C269.292 731.36 269.879 731.987 270.625 732.44C271.372 732.867 272.239 733.08 273.225 733.08C274.212 733.08 275.025 732.867 275.665 732.44C276.332 732.013 276.825 731.467 277.145 730.8H282.665C282.292 732.053 281.665 733.187 280.785 734.2C279.905 735.213 278.825 736.013 277.545 736.6C276.265 737.187 274.839 737.48 273.265 737.48ZM309.742 737.48C306.942 737.48 304.529 736.88 302.502 735.68C300.502 734.453 298.955 732.76 297.862 730.6C296.795 728.413 296.262 725.893 296.262 723.04C296.262 720.187 296.795 717.667 297.862 715.48C298.955 713.293 300.502 711.587 302.502 710.36C304.529 709.133 306.942 708.52 309.742 708.52C313.129 708.52 315.902 709.36 318.062 711.04C320.222 712.72 321.569 715.093 322.102 718.16H316.222C315.875 716.667 315.142 715.507 314.022 714.68C312.929 713.827 311.489 713.4 309.702 713.4C308.049 713.4 306.622 713.8 305.422 714.6C304.249 715.373 303.342 716.48 302.702 717.92C302.062 719.333 301.742 721.04 301.742 723.04C301.742 725.013 302.062 726.72 302.702 728.16C303.342 729.6 304.249 730.707 305.422 731.48C306.622 732.253 308.049 732.64 309.702 732.64C311.489 732.64 312.929 732.253 314.022 731.48C315.115 730.68 315.835 729.573 316.182 728.16H322.102C321.569 731.067 320.222 733.347 318.062 735C315.902 736.653 313.129 737.48 309.742 737.48ZM336.113 737.48C334.193 737.48 332.46 737.04 330.913 736.16C329.393 735.253 328.18 734.013 327.273 732.44C326.393 730.84 325.953 729.013 325.953 726.96C325.953 724.853 326.393 723.013 327.273 721.44C328.18 719.84 329.406 718.6 330.953 717.72C332.5 716.813 334.233 716.36 336.153 716.36C338.1 716.36 339.833 716.813 341.353 717.72C342.9 718.6 344.113 719.84 344.993 721.44C345.9 723.013 346.353 724.84 346.353 726.92C346.353 729 345.9 730.84 344.993 732.44C344.113 734.013 342.9 735.253 341.353 736.16C339.806 737.04 338.06 737.48 336.113 737.48ZM336.113 732.8C337.02 732.8 337.82 732.587 338.513 732.16C339.233 731.733 339.793 731.08 340.193 730.2C340.62 729.32 340.833 728.227 340.833 726.92C340.833 725.613 340.62 724.533 340.193 723.68C339.793 722.8 339.233 722.147 338.513 721.72C337.82 721.267 337.033 721.04 336.153 721.04C335.3 721.04 334.513 721.267 333.793 721.72C333.073 722.147 332.5 722.8 332.073 723.68C331.673 724.533 331.473 725.613 331.473 726.92C331.473 728.227 331.673 729.32 332.073 730.2C332.5 731.08 333.06 731.733 333.753 732.16C334.473 732.587 335.26 732.8 336.113 732.8ZM360.527 737.48C358.607 737.48 356.874 737.04 355.327 736.16C353.807 735.253 352.594 734.013 351.687 732.44C350.807 730.84 350.367 729.013 350.367 726.96C350.367 724.853 350.807 723.013 351.687 721.44C352.594 719.84 353.821 718.6 355.367 717.72C356.914 716.813 358.647 716.36 360.567 716.36C362.514 716.36 364.247 716.813 365.767 717.72C367.314 718.6 368.527 719.84 369.407 721.44C370.314 723.013 370.767 724.84 370.767 726.92C370.767 729 370.314 730.84 369.407 732.44C368.527 734.013 367.314 735.253 365.767 736.16C364.221 737.04 362.474 737.48 360.527 737.48ZM360.527 732.8C361.434 732.8 362.234 732.587 362.927 732.16C363.647 731.733 364.207 731.08 364.607 730.2C365.034 729.32 365.247 728.227 365.247 726.92C365.247 725.613 365.034 724.533 364.607 723.68C364.207 722.8 363.647 722.147 362.927 721.72C362.234 721.267 361.447 721.04 360.567 721.04C359.714 721.04 358.927 721.267 358.207 721.72C357.487 722.147 356.914 722.8 356.487 723.68C356.087 724.533 355.887 725.613 355.887 726.92C355.887 728.227 356.087 729.32 356.487 730.2C356.914 731.08 357.474 731.733 358.167 732.16C358.887 732.587 359.674 732.8 360.527 732.8ZM375.421 737V708.2H380.821V737H375.421ZM395.619 737V709H401.019L413.899 728.32V709H419.299V737H413.899L401.019 717.72V737H395.619ZM434.16 737.48C432.24 737.48 430.507 737.04 428.96 736.16C427.44 735.253 426.227 734.013 425.32 732.44C424.44 730.84 424 729.013 424 726.96C424 724.853 424.44 723.013 425.32 721.44C426.227 719.84 427.453 718.6 429 717.72C430.547 716.813 432.28 716.36 434.2 716.36C436.147 716.36 437.88 716.813 439.4 717.72C440.947 718.6 442.16 719.84 443.04 721.44C443.947 723.013 444.4 724.84 444.4 726.92C444.4 729 443.947 730.84 443.04 732.44C442.16 734.013 440.947 735.253 439.4 736.16C437.853 737.04 436.107 737.48 434.16 737.48ZM434.16 732.8C435.067 732.8 435.867 732.587 436.56 732.16C437.28 731.733 437.84 731.08 438.24 730.2C438.667 729.32 438.88 728.227 438.88 726.92C438.88 725.613 438.667 724.533 438.24 723.68C437.84 722.8 437.28 722.147 436.56 721.72C435.867 721.267 435.08 721.04 434.2 721.04C433.347 721.04 432.56 721.267 431.84 721.72C431.12 722.147 430.547 722.8 430.12 723.68C429.72 724.533 429.52 725.613 429.52 726.92C429.52 728.227 429.72 729.32 430.12 730.2C430.547 731.08 431.107 731.733 431.8 732.16C432.52 732.587 433.307 732.8 434.16 732.8ZM452.35 737L446.43 716.84H451.75L455.67 733.2L454.67 733.16L459.15 716.84H465.15L469.63 733.16L468.59 733.2L472.55 716.84H477.87L471.95 737H466.35L461.59 720.2H462.71L457.95 737H452.35Z" fill="#545454"/>
<line x1="528" y1="722" x2="671" y2="722" stroke="#545454" stroke-width="10"/>
<defs>
<clipPath id="clip0_915_2447">
<rect x="101" y="28" width="511" height="506" rx="253" fill="white"/>
</clipPath>
</defs>
</svg>
