<svg width="84" height="84" viewBox="0 0 84 84" fill="none" xmlns="http://www.w3.org/2000/svg">
<circle cx="42" cy="42" r="41" fill="#DEA9FF" stroke="#170460" stroke-width="2"/>
<circle cx="39" cy="32" r="2" fill="#ECCCFF"/>
<circle cx="50" cy="40" r="2" fill="#FCFFFF"/>
<circle cx="30" cy="38" r="2" fill="#ECCCFF"/>
<circle cx="21.5" cy="44.5" r="1.5" fill="#ECCCFF"/>
<circle cx="56.5" cy="47.5" r="1.5" fill="#ECCCFF"/>
<circle cx="54.5" cy="30.5" r="1.5" fill="#ECCCFF"/>
<circle cx="41.5" cy="24.5" r="1.5" fill="#ECCCFF"/>
<circle cx="30.5" cy="28.5" r="1.5" fill="#ECCCFF"/>
<circle cx="53.5" cy="55.5" r="1.5" fill="#ECCCFF"/>
<circle cx="36.5" cy="61.5" r="1.5" fill="#ECCCFF"/>
<circle cx="32" cy="48" r="2" fill="#ECCCFF"/>
<circle cx="40" cy="41" r="3" fill="#FCFFFF"/>
<circle cx="46.5" cy="49.5" r="2.5" fill="#FCFFFF"/>
<circle cx="37.5" cy="53.5" r="2.5" fill="#ECCCFF"/>
<path fill-rule="evenodd" clip-rule="evenodd" d="M29.9877 8.01221C24.67 8.01221 19.6986 9.49459 15.4641 12.0687C7.95013 18.7351 2.96412 28.1878 2.12549 38.8073C2.84363 46.0533 6.32411 52.487 11.4991 57.0405C11.7756 57.6002 12.0671 58.1512 12.373 58.693C11.4796 59.1118 11.0241 60.1212 11.304 61.0697C13.0032 66.8289 16.2789 71.9127 20.6321 75.8205C26.8137 79.7343 34.1422 82 41.9999 82C49.8581 82 57.1869 79.734 63.3688 75.8199C69.5179 70.2998 73.5177 62.4332 73.9592 53.6289C75.2796 50.0009 75.9999 46.0846 75.9999 42C75.9999 39.775 75.7861 37.5999 75.3781 35.4941C76.2968 35.3152 76.9753 34.5176 76.9942 33.5713C76.998 33.3813 76.9999 33.1908 76.9999 33C76.9999 17.536 64.4639 5 48.9999 5C43.9274 5 39.1699 6.34886 35.0666 8.70746C34.1681 8.8936 33.2827 9.1152 32.4117 9.37073C32.1448 8.58841 31.4124 8.03503 30.559 8.01792C30.369 8.01412 30.1786 8.01221 29.9877 8.01221ZM30.4389 10.016C30.2888 10.0135 30.1384 10.0122 29.9877 10.0122C27.9192 10.0122 25.9072 10.2538 23.9782 10.7102C12.5162 13.4223 3.98772 23.7213 3.98772 36.0122C3.98772 42.0518 6.047 47.6104 9.50171 52.0242C8.52544 48.8554 7.99988 45.4891 7.99988 42C7.99988 30.5597 13.6502 20.439 22.3125 14.2765C23.0838 13.6672 23.8926 13.1033 24.735 12.5888C26.3696 11.5903 28.1303 10.7781 29.9877 10.1815C29.9956 10.1789 30.0034 10.1764 30.0113 10.1739C30.1534 10.1204 30.2959 10.0677 30.4389 10.016ZM14.0156 26.4677C11.4572 31.0673 9.99988 36.3634 9.99988 42C9.99988 46.9409 11.1197 51.6203 13.1193 55.7981C17.6599 59.6729 23.5506 62.0122 29.9877 62.0122C33.6779 62.0122 37.1886 61.2434 40.3682 59.8573C42.3974 58.9727 44.2918 57.8367 46.012 56.4885C44.0626 57.2121 41.9961 57.6946 39.8486 57.8999C39.0717 57.9742 38.2841 58.0122 37.4877 58.0122C23.9567 58.0122 12.9877 47.0432 12.9877 33.5122C12.9877 31.0635 13.347 28.6987 14.0156 26.4677ZM19.7551 65.0037C18.1865 63.4866 16.7727 61.8106 15.5396 60.0015C19.7577 62.5474 24.7016 64.0122 29.9877 64.0122C36.4959 64.0122 42.4904 61.7893 47.2457 58.0627C48.0215 57.4548 48.2387 56.3723 47.7575 55.5121C47.2763 54.6519 46.2402 54.2706 45.3161 54.6135C42.8807 55.5174 40.2443 56.0122 37.4877 56.0122C25.0613 56.0122 14.9877 45.9386 14.9877 33.5122C14.9877 26.3713 18.3151 20.005 23.5055 15.8825C25.5715 14.4169 27.8189 13.1902 30.2076 12.2428C24.5523 17.366 20.9999 24.7681 20.9999 33C20.9999 39.5081 23.2228 45.5027 26.9494 50.258C27.5574 51.0338 28.6399 51.251 29.5 50.7698C30.3602 50.2886 30.7416 49.2524 30.3986 48.3284C29.4947 45.893 28.9999 43.2566 28.9999 40.5C28.9999 28.0736 39.0735 18 51.4999 18C61.2737 18 69.5963 24.2333 72.7008 32.9452C73.5462 35.8163 73.9999 38.8552 73.9999 42C73.9999 43.7008 73.8672 45.3706 73.6116 46.9997C71.6845 34.7174 62.7713 24.7563 51.0695 21.3039C50.1139 21.022 49.0965 21.4864 48.6835 22.3931C48.2705 23.2998 48.5878 24.3723 49.4277 24.9082C56.39 29.3506 60.9999 37.1376 60.9999 46C60.9999 59.8071 49.807 71 35.9999 71C29.7996 71 24.1256 68.7435 19.7551 65.0037ZM33.6469 72.8988C34.4224 72.9658 35.2071 73 35.9999 73C50.9116 73 62.9999 60.9117 62.9999 46C62.9999 38.8981 60.258 32.4366 55.7749 27.6164C54.2146 25.9388 52.4435 24.46 50.5035 23.2222C52.8056 23.9014 54.9925 24.8493 57.0278 26.0295C65.9794 31.2206 71.9999 40.9072 71.9999 51.9999C71.9999 52.4107 71.9917 52.8195 71.9753 53.2262C67.4283 65.3618 55.7229 74 41.9999 74C39.1101 74 36.3098 73.617 33.6469 72.8988ZM74.607 32.3367C74.6846 32.5564 74.7592 32.7775 74.8307 33C74.8873 33.1762 74.9419 33.3533 74.9946 33.5312C74.9982 33.3546 74.9999 33.1775 74.9999 33C74.9999 30.9315 74.7584 28.9194 74.3019 26.9904C71.5898 15.5285 61.2908 7 48.9999 7C46.5139 7 44.1094 7.3489 41.8327 8.0004C41.8884 8.00013 41.9441 8 41.9999 8C57.4206 8 70.4436 18.2661 74.607 32.3367ZM35.7874 10.6026C37.7971 10.2073 39.8743 10 41.9999 10C51.4425 10 59.9299 14.0899 65.7873 20.5949C61.7655 17.7031 56.8316 16 51.4999 16C37.969 16 26.9999 26.969 26.9999 40.5C26.9999 41.2964 27.0379 42.084 27.1122 42.8609C27.3175 45.0083 27.8001 47.0749 28.5236 49.0243C27.1755 47.3041 26.0394 45.4097 25.1548 43.3805C23.7687 40.2008 22.9999 36.6902 22.9999 33C22.9999 23.4643 28.1333 15.1276 35.7874 10.6026ZM70.9775 59.7938C67.5461 72.5837 55.8727 82 41.9999 82C30.9073 82 21.2208 75.9795 16.0296 67.028C14.8493 64.9927 13.9014 62.8058 13.2222 60.5037C14.46 62.4436 15.9389 64.2148 17.6165 65.7751C17.8747 66.0153 18.1377 66.2504 18.4051 66.4804C24.5194 72.3748 32.8363 76 41.9999 76C54.2541 76 64.9942 69.5171 70.9775 59.7938Z" fill="#8634B9"/>
<path fill-rule="evenodd" clip-rule="evenodd" d="M42 82C64.0914 82 82 64.0914 82 42C82 19.9086 64.0914 2 42 2C19.9086 2 2 19.9086 2 42C2 64.0914 19.9086 82 42 82ZM42 76C60.7777 76 76 60.7777 76 42C76 23.2223 60.7777 8 42 8C23.2223 8 8 23.2223 8 42C8 60.7777 23.2223 76 42 76Z" fill="#A143DA"/>
<path fill-rule="evenodd" clip-rule="evenodd" d="M35.9999 73C50.9116 73 62.9999 60.9117 62.9999 46C62.9999 36.4263 58.0171 28.0164 50.5035 23.2222C62.9304 26.8885 71.9999 38.3851 71.9999 51.9999C71.9999 68.5685 58.5684 81.9999 41.9999 81.9999C28.3851 81.9999 16.8885 72.9306 13.2222 60.5037C18.0164 68.0173 26.4263 73 35.9999 73Z" fill="#C25EFF"/>
<path fill-rule="evenodd" clip-rule="evenodd" d="M30.519 10.0175C30.3423 10.014 30.1653 10.0122 29.9878 10.0122C15.6284 10.0122 3.98779 21.6528 3.98779 36.0122C3.98779 50.3716 15.6284 62.0122 29.9878 62.0122C36.033 62.0122 41.5963 59.9491 46.0121 56.4885C43.3574 57.4738 40.4854 58.0122 37.4878 58.0122C23.9568 58.0122 12.9878 47.0432 12.9878 33.5122C12.9878 22.4022 20.3827 13.0195 30.519 10.0175Z" fill="#EBCAFF"/>
<path fill-rule="evenodd" clip-rule="evenodd" d="M74.9947 33.5312C74.9982 33.3546 75 33.1775 75 33C75 18.6406 63.3594 7 49 7C34.6406 7 23 18.6406 23 33C23 39.0452 25.0631 44.6085 28.5237 49.0243C27.5384 46.3696 27 43.4976 27 40.5C27 26.969 37.969 16 51.5 16C62.61 16 71.9928 23.395 74.9947 33.5312Z" fill="#CE7CFF"/>
<circle cx="42" cy="42" r="38" stroke="#D898FF" stroke-width="2" stroke-linejoin="round"/>
<path d="M4 42C4 21.0132 21.0132 4 42 4" stroke="#F9F0FF" stroke-width="2" stroke-linecap="round" stroke-linejoin="round"/>
<path d="M25.5 35.5C26 29 29.5 15.5 45 12" stroke="#DDA5FF" stroke-width="2" stroke-linecap="round" stroke-linejoin="round"/>
<path d="M9 38C9.33333 45.1667 15.5 57 31.5 59.5" stroke="#F9F0FF" stroke-width="2" stroke-linecap="round" stroke-linejoin="round"/>
<path d="M62 32C67.5 38 69.5 54 62 64" stroke="#D287FF" stroke-width="2" stroke-linecap="round" stroke-linejoin="round"/>
</svg>
